Coordinates
version=1
nRows=13
nColumns=36
inDegrees=yes

Units are S.I. units (second, meters, Newtons, ...)
If the header above contains a line with 'inDegrees', this indicates whether rotational values are in degrees (yes) or radians (no).

endheader
time	pelvis_tilt	pelvis_list	pelvis_rotation	pelvis_tx	pelvis_ty	pelvis_tz	hip_flexion_r	hip_adduction_r	hip_rotation_r	knee_angle_r	knee_angle_r_beta	ankle_angle_r	subtalar_angle_r	mtp_angle_r	hip_flexion_l	hip_adduction_l	hip_rotation_l	knee_angle_l	knee_angle_l_beta	ankle_angle_l	subtalar_angle_l	mtp_angle_l	lumbar_extension	lumbar_bending	lumbar_rotation	arm_flex_r	arm_add_r	arm_rot_r	elbow_flex_r	pro_sup_r	arm_flex_l	arm_add_l	arm_rot_l	elbow_flex_l	pro_sup_l
      6.72000000	     -7.47343656	      4.55865206	     -3.49736787	     -0.24783075	      0.91794040	     -0.53815529	     29.91413535	      0.07111736	      8.14408209	     37.03080468	      0.64630947	     17.22282988	     -9.21838486	     -7.49999987	     42.74302586	     -6.75902514	     -5.14442906	     54.26627657	      0.94712520	    -19.31533840	    -20.95471394	     -7.49999987	    -10.43678920	     -1.86438600	      1.51685667	      5.11945593	     -9.28108913	     -0.42558388	    113.57311985	    103.41688935	      9.65985503	     -5.70885460	      1.20083801	    111.83413987	    102.30598189
      6.73000000	     -9.00700534	      4.33638996	     -3.25400325	     -0.25435818	      0.91065359	     -0.53911293	     32.97360370	      0.36209705	      7.76598498	     38.83818768	      0.67785425	     17.59636503	     -9.24157845	     -7.49999987	     45.55244921	     -7.08430276	     -4.92503081	     55.42435832	      0.96733754	    -19.01428927	    -21.06603913	     -7.49999987	    -10.39312281	     -1.49088251	      1.16058616	      6.52785782	     -9.37220820	     -0.44017121	    114.05513568	    103.53722019	     10.81295795	     -5.71081416	      0.72911667	    112.57302389	    102.43648873
      6.74000000	    -10.62531636	      4.14296213	     -3.01490519	     -0.26096294	      0.90291307	     -0.54016148	     36.16805758	      0.57941742	      7.34406370	     40.68304695	      0.71005312	     18.00454512	     -9.12865714	     -7.49999987	     48.42882033	     -7.32962699	     -4.65764025	     56.54583772	      0.98691105	    -18.61939361	    -21.17631591	     -7.49999987	    -10.23985136	     -1.14070860	      0.77711394	      7.94856979	     -9.45714745	     -0.39540286	    114.46497315	    103.65796438	     11.90626364	     -5.72624707	      0.28123734	    113.28771275	    102.55543960
      6.75000000	    -12.24904996	      3.99219244	     -2.78216269	     -0.26763030	      0.89487882	     -0.54139459	     39.37563926	      0.70131052	      6.91418196	     42.51584944	      0.74204156	     18.40808477	     -9.05430675	     -7.49999987	     51.23351399	     -7.45428491	     -4.36653305	     57.55976408	      1.00460740	    -18.01619528	    -21.45048446	     -7.49999987	    -10.10427365	     -0.81292570	      0.43659566	      9.31469498	     -9.54494742	     -0.39661581	    114.95877813	    103.76161260	     13.04314726	     -5.71457657	     -0.07493463	    113.97950049	    102.65243981
      6.76000000	    -13.94104963	      3.87569810	     -2.59967548	     -0.27439082	      0.88633263	     -0.54266460	     42.69367728	      0.78106115	      6.54614705	     44.37832553	      0.77454790	     18.84781871	     -8.78910454	     -7.49999987	     54.08134785	     -7.54512760	     -4.08728582	     58.57001889	      1.02223967	    -17.19969271	    -21.65541310	     -7.49999987	     -9.85764576	     -0.52154238	      0.14427679	     10.69824363	     -9.61031297	     -0.37899697	    115.40865353	    103.86787420	     14.16195596	     -5.68429343	     -0.51353742	    114.63590765	    102.75362741
      6.77000000	    -15.54921294	      3.74710037	     -2.47114070	     -0.28118285	      0.87756781	     -0.54395456	     45.93452466	      0.83965593	      6.14507855	     46.23020591	      0.80686931	     19.28201354	     -8.49945919	     -7.49999987	     56.84063975	     -7.68132446	     -3.88380829	     59.60982693	      1.04038775	    -16.33472572	    -21.84816697	     -7.49999987	     -9.71848102	     -0.22854926	     -0.06862371	     12.05844296	     -9.71087954	     -0.36233510	    115.91818622	    103.94980238	     15.30154069	     -5.62813932	     -0.90688521	    115.32108550	    102.85453714
      6.78000000	    -16.96201908	      3.61232029	     -2.38527801	     -0.28793476	      0.86890311	     -0.54517027	     48.94566740	      0.88813147	      5.72175948	     48.03253462	      0.83832588	     19.70129698	     -8.22925602	     -7.49999987	     59.36574297	     -7.87761647	     -3.80147969	     60.62442286	      1.05809579	    -15.53927376	    -22.02272117	     -7.49999987	     -9.80236158	      0.04572882	     -0.25916623	     13.44853055	     -9.83910862	     -0.35663873	    116.38270538	    104.00039909	     16.52106482	     -5.55981368	     -1.23293812	    115.92327189	    102.93776204
      6.79000000	    -18.44460959	      3.55178077	     -2.29044553	     -0.29462989	      0.85985256	     -0.54637282	     52.04299146	      0.88000966	      5.43598987	     49.84779211	      0.87000810	     20.21776198	     -7.76870734	     -7.49999987	     61.93691727	     -7.99358575	     -3.73982033	     61.61937246	      1.07546093	    -14.52977529	    -22.12932089	     -7.49999987	     -9.75967618	      0.24785623	     -0.46045345	     14.83595416	     -9.89865321	     -0.31366234	    116.79303250	    104.04206661	     17.65983939	     -5.47869982	     -1.60745830	    116.50494408	    103.02668223
      6.80000000	    -19.76169992	      3.54050479	     -2.26822166	     -0.30113915	      0.85084226	     -0.54740778	     54.98318391	      0.85282159	      5.17371460	     51.68564557	      0.90208469	     20.73628924	     -7.29677478	     -7.49999987	     64.28146747	     -8.17081644	     -3.81769918	     62.59700587	      1.09252385	    -13.41525799	    -22.26898326	     -7.49999987	     -9.89483117	      0.37099207	     -0.60945827	     16.31125963	     -9.84224651	     -0.35533371	    117.12394373	    104.07831963	     18.82303403	     -5.45090276	     -1.96586635	    117.05362452	    103.11771480
      6.81000000	    -20.89916982	      3.57293457	     -2.28288210	     -0.30747998	      0.84191547	     -0.54828369	     57.73924603	      0.77569803	      4.92975626	     53.54968777	      0.93461836	     21.67320880	     -6.16223486	     -7.49999987	     66.41913351	     -8.35658208	     -3.93162312	     63.61088584	      1.11021940	    -11.85725956	    -21.81094507	     -7.49999987	    -10.20290847	      0.43129840	     -0.88259970	     18.01231265	     -9.62692489	     -0.23552224	    117.16515291	    104.16883018	     19.89281094	     -5.55054132	     -2.48411933	    117.66331005	    103.32148962
      6.82000000	    -21.96441083	      3.48947971	     -2.29755270	     -0.31363659	      0.83315583	     -0.54910169	     60.32205458	      0.86054399	      4.70739863	     55.24926052	      0.96428151	     21.90790690	     -6.13430400	     -7.49999987	     68.49052561	     -8.58345596	     -3.96156427	     64.59195640	      1.12734231	    -10.94857219	    -22.27006496	     -7.49999987	    -10.59250211	      0.57367267	     -0.96525293	     19.44421252	     -9.53726711	     -0.34968810	    117.48156490	    104.21456102	     21.10898144	     -5.54112553	     -2.65737641	    118.04339771	    103.38902441
      6.83000000	    -22.65520312	      3.37386840	     -2.31930206	     -0.31957086	      0.82515383	     -0.54996390	     62.43358369	      0.94608501	      4.50727439	     56.86414454	      0.99246655	     22.09086967	     -6.15191732	     -7.49999987	     70.16695138	     -8.78392148	     -3.95269680	     65.58237922	      1.14462845	    -10.35808505	    -22.60606489	     -7.49999987	    -11.41694846	      0.78298538	     -0.96755986	     20.97577143	     -9.44549706	     -0.40106252	    117.64995731	    104.23587356	     22.48691356	     -5.51779362	     -2.79906629	    118.21863160	    103.41111284
      6.84000000	    -23.68424755	      3.26589036	     -2.23813872	     -0.32543981	      0.81644314	     -0.55109208	     64.94164338	      0.92088797	      4.23630981	     58.55026537	      1.02189491	     22.35104555	     -6.01574940	     -7.49999987	     72.26944392	     -8.91077773	     -3.93244595	     66.61381824	      1.16263046	     -9.41123621	    -23.00336528	     -7.49999987	    -11.73234723	      0.98798933	     -1.12248981	     22.28880033	     -9.42157931	     -0.31855881	    117.84364120	    104.26652574	     23.57462559	     -5.48972049	     -2.98162139	    118.49211419	    103.44627519
